<svg width="205" height="205" viewBox="0 0 205 205" fill="none" xmlns="http://www.w3.org/2000/svg">
<g clip-path="url(#clip0)">
<path d="M201.387 102.4C201.387 47.73 157.07 3.41299 102.4 3.41299C47.73 3.41299 3.413 47.73 3.413 102.4H201.387Z" fill="#E52C30"/>
<path d="M204.8 105.813H0V102.4C0 45.937 45.937 0 102.4 0C158.863 0 204.8 45.937 204.8 102.4V105.813ZM6.886 98.987H197.913C196.111 47.86 153.958 6.827 102.399 6.827C50.84 6.827 8.689 47.86 6.886 98.987Z" fill="black"/>
<path d="M201.387 102.4C201.387 157.07 157.07 201.387 102.4 201.387C47.73 201.387 3.413 157.07 3.413 102.4H201.387Z" fill="white"/>
<path d="M102.4 204.8C45.937 204.8 0 158.863 0 102.4C0 100.516 1.529 98.987 3.413 98.987H201.386C203.27 98.987 204.799 100.516 204.799 102.4C204.8 158.863 158.863 204.8 102.4 204.8ZM6.886 105.813C8.688 156.94 50.841 197.973 102.4 197.973C153.959 197.973 196.111 156.94 197.914 105.813H6.886V105.813Z" fill="black"/>
<path d="M102.4 139.947C123.137 139.947 139.947 123.137 139.947 102.4C139.947 81.6634 123.137 64.853 102.4 64.853C81.6634 64.853 64.853 81.6634 64.853 102.4C64.853 123.137 81.6634 139.947 102.4 139.947Z" fill="#777777"/>
<path d="M102.4 143.36C79.814 143.36 61.44 124.986 61.44 102.4C61.44 79.814 79.814 61.44 102.4 61.44C124.986 61.44 143.36 79.814 143.36 102.4C143.36 124.986 124.986 143.36 102.4 143.36ZM102.4 68.267C83.579 68.267 68.267 83.579 68.267 102.4C68.267 121.221 83.579 136.533 102.4 136.533C121.221 136.533 136.533 121.221 136.533 102.4C136.533 83.579 121.221 68.267 102.4 68.267Z" fill="black"/>
<path d="M102.4 126.293C115.596 126.293 126.293 115.596 126.293 102.4C126.293 89.2043 115.596 78.507 102.4 78.507C89.2043 78.507 78.507 89.2043 78.507 102.4C78.507 115.596 89.2043 126.293 102.4 126.293Z" fill="white"/>
<path d="M102.4 129.707C87.344 129.707 75.093 117.457 75.093 102.4C75.093 87.343 87.343 75.093 102.4 75.093C117.457 75.093 129.707 87.343 129.707 102.4C129.707 117.457 117.456 129.707 102.4 129.707ZM102.4 81.92C91.107 81.92 81.92 91.107 81.92 102.4C81.92 113.693 91.107 122.88 102.4 122.88C113.693 122.88 122.88 113.693 122.88 102.4C122.88 91.107 113.693 81.92 102.4 81.92Z" fill="black"/>
</g>
<defs>
<clipPath id="clip0">
<rect width="204.8" height="204.8" fill="white"/>
</clipPath>
</defs>
</svg>
